<?xml version="1.0" standalone="no"?>
<!DOCTYPE svg PUBLIC "-//W3C//DTD SVG 20010904//EN"
 "http://www.w3.org/TR/2001/REC-SVG-20010904/DTD/svg10.dtd">
<svg version="1.0" xmlns="http://www.w3.org/2000/svg"
 width="831.000000pt" height="831.000000pt" viewBox="0 0 831.000000 831.000000"
 preserveAspectRatio="xMidYMid meet">
<metadata>
Created by potrace 1.14, written by Peter Selinger 2001-2017
</metadata>
<g transform="translate(0.000000,831.000000) scale(0.100000,-0.100000)"
fill="#000000" stroke="none">
<path d="M4544 8190 c-11 -3 -29 -5 -41 -4 -13 1 -23 -3 -23 -7 0 -5 -4 -8 -8
-6 -14 4 -162 -66 -157 -74 3 -4 -4 -5 -15 -2 -11 3 -20 0 -20 -6 0 -6 -4 -10
-8 -8 -11 3 -72 -50 -65 -57 4 -3 1 -6 -6 -6 -17 0 -61 -53 -56 -67 2 -7 -2
-10 -11 -6 -7 3 -14 1 -14 -4 0 -6 -18 -28 -40 -51 -22 -22 -40 -45 -40 -50 0
-5 -7 -13 -16 -16 -8 -3 -12 -11 -9 -16 4 -6 1 -9 -7 -8 -7 2 -12 -3 -10 -9 1
-7 -3 -13 -9 -13 -6 0 -19 -10 -29 -22 -14 -18 -17 -36 -15 -90 4 -67 3 -68
-31 -96 -19 -15 -35 -25 -36 -22 -3 5 -34 -20 -82 -66 -30 -30 -93 -124 -82
-124 3 0 -1 -12 -9 -26 -28 -55 5 -338 37 -318 7 4 8 2 4 -4 -7 -11 89 -113
102 -110 4 1 17 -3 28 -9 12 -7 36 -15 55 -18 59 -11 59 -22 -2 -68 -20 -15
-39 -24 -42 -20 -4 3 -7 1 -7 -6 0 -7 -4 -10 -9 -6 -5 3 -15 0 -23 -7 -7 -7
-22 -15 -33 -16 -11 -2 -22 -7 -25 -12 -8 -11 -54 -35 -64 -32 -5 2 -12 -1
-15 -5 -8 -11 -93 -53 -108 -53 -6 0 -13 -3 -15 -7 -1 -5 -41 -28 -88 -52 -47
-24 -122 -62 -167 -86 -45 -24 -84 -40 -87 -37 -3 3 -6 0 -6 -7 0 -7 -4 -10
-9 -7 -4 3 -16 -3 -25 -13 -9 -10 -74 -46 -144 -81 -70 -35 -129 -67 -130 -72
-2 -4 -8 -6 -13 -2 -5 3 -9 -3 -9 -12 0 -10 -3 -14 -7 -11 -7 8 -33 -11 -33
-23 0 -9 194 -5 208 4 6 3 28 7 51 8 22 1 38 4 36 8 -3 4 12 5 32 3 23 -2 39
1 44 9 7 11 9 11 9 0 0 -7 5 -10 11 -6 7 4 25 7 40 6 16 0 29 2 29 6 0 4 24 8
53 9 28 1 70 5 92 8 22 3 51 5 64 5 14 0 28 6 33 12 5 8 8 9 8 2 0 -7 15 -9
43 -5 23 3 53 5 67 5 67 -4 66 -3 22 -32 -23 -15 -45 -35 -48 -44 -3 -10 -11
-15 -19 -11 -8 3 -18 -2 -21 -11 -3 -9 -10 -13 -15 -11 -5 3 -23 -2 -41 -11
-45 -23 -193 -33 -283 -19 -106 17 -255 0 -255 -29 0 -5 -3 -7 -6 -4 -3 4 -22
-5 -41 -18 -20 -13 -39 -24 -44 -24 -7 0 -41 -26 -80 -62 -10 -10 -19 -15 -19
-12 0 3 -9 -5 -20 -18 -27 -32 -90 -128 -84 -128 3 0 -4 -12 -15 -26 -12 -15
-21 -34 -21 -44 0 -9 -3 -20 -7 -24 -5 -4 -8 -11 -8 -14 -3 -39 -89 -134 -112
-125 -9 4 -14 2 -10 -3 3 -5 -2 -10 -11 -10 -30 -1 -46 -9 -67 -31 -12 -13
-25 -20 -28 -16 -4 3 -7 1 -7 -5 0 -6 -6 -17 -13 -24 -22 -22 -90 -162 -92
-188 -1 -14 -6 -35 -13 -46 -6 -12 -9 -24 -6 -27 9 -9 12 -121 3 -132 -8 -11
-9 -16 -9 -39 0 -8 -7 -22 -16 -30 -8 -9 -13 -16 -10 -16 3 0 -2 -9 -12 -20
-14 -17 -17 -42 -18 -133 -1 -78 -6 -123 -17 -149 -8 -20 -13 -39 -9 -42 3 -3
0 -6 -5 -6 -6 0 -10 -11 -8 -25 1 -14 -2 -25 -6 -25 -5 0 -9 -14 -9 -32 0 -17
-11 -50 -24 -72 -13 -23 -24 -45 -25 -51 -1 -17 -35 -75 -43 -75 -5 0 -8 -9
-8 -19 0 -11 -5 -21 -10 -23 -6 -2 -12 -14 -15 -27 -2 -14 -10 -28 -17 -33 -7
-4 -10 -8 -6 -8 5 0 0 -9 -10 -19 -28 -31 -57 -75 -54 -83 1 -5 -2 -8 -7 -8
-5 0 -22 -25 -37 -56 -15 -30 -42 -67 -60 -80 -28 -22 -52 -72 -46 -96 1 -5
-2 -8 -7 -8 -14 0 -8 -140 7 -149 8 -5 14 -12 15 -17 1 -5 6 -8 10 -6 5 1 6
-2 2 -8 -3 -5 -2 -10 4 -10 14 0 4 -48 -20 -93 -11 -21 -16 -43 -13 -49 4 -6
3 -8 -3 -5 -13 8 -19 -14 -18 -68 0 -22 -3 -42 -7 -45 -3 -3 -8 -14 -10 -25
-1 -11 -9 -26 -16 -33 -7 -8 -9 -19 -5 -25 3 -7 3 -9 -2 -5 -9 9 -85 -71 -85
-89 0 -7 -4 -13 -9 -13 -15 0 -56 -73 -57 -102 -1 -16 3 -28 8 -28 5 0 6 -6 1
-12 -10 -17 -11 -27 -2 -60 4 -15 3 -28 -1 -30 -5 -2 -11 -15 -14 -30 -2 -14
-9 -36 -16 -47 -6 -12 -8 -21 -4 -21 4 0 -1 -9 -11 -20 -10 -11 -15 -20 -11
-20 4 0 -2 -13 -14 -30 -12 -16 -19 -34 -15 -39 3 -6 -2 -14 -10 -19 -9 -4
-17 -18 -18 -30 -1 -12 -5 -22 -10 -22 -4 0 -5 -4 -2 -10 3 -5 2 -10 -4 -10
-5 0 -13 -10 -17 -22 -4 -13 -17 -45 -29 -73 -42 -92 -53 -123 -47 -129 3 -3
1 -6 -5 -6 -8 0 -42 -71 -49 -102 -1 -5 -3 -11 -4 -15 -1 -5 -2 -11 -1 -15 0
-5 -4 -8 -11 -8 -6 0 -8 -3 -5 -7 4 -3 2 -12 -4 -20 -6 -7 -8 -13 -3 -13 5 0
4 -4 -1 -8 -6 -4 -24 -41 -39 -82 -16 -41 -38 -95 -49 -120 -66 -153 -79 -189
-72 -199 3 -6 3 -11 -2 -11 -4 0 -10 -10 -12 -22 -2 -13 -5 -461 -7 -995 l-4
-973 2666 0 c2128 0 2665 3 2661 13 -2 6 -10 11 -17 9 -7 -2 -10 3 -7 11 6 17
-47 79 -59 69 -4 -4 -4 -1 1 7 5 9 2 18 -7 25 -8 6 -17 16 -19 21 -2 6 -7 9
-12 7 -4 -1 -6 1 -5 5 4 13 -32 73 -43 73 -6 0 -8 4 -4 9 3 5 -2 17 -11 25 -8
9 -12 16 -8 16 4 0 -3 8 -14 19 -12 10 -22 24 -22 30 0 6 -7 14 -15 17 -8 4
-13 10 -10 14 3 5 -2 15 -10 23 -8 9 -15 20 -15 25 0 13 -35 43 -43 37 -4 -3
-5 -2 -2 1 4 7 -44 76 -57 82 -5 2 -8 10 -8 18 0 8 -4 14 -10 14 -5 0 -10 7
-10 17 0 9 -7 23 -15 32 -33 34 -145 213 -150 239 -2 15 0 34 5 42 5 8 10 11
10 5 0 -6 3 -6 8 1 4 6 27 24 52 41 25 17 63 52 85 79 22 27 53 61 68 76 15
16 26 32 23 37 -3 5 1 12 10 15 9 3 12 11 8 18 -4 7 -4 10 1 6 9 -9 27 8 49
47 9 17 28 45 41 64 14 18 22 38 18 44 -3 6 -1 7 5 3 7 -4 12 -3 12 2 0 4 13
23 30 42 16 18 27 37 24 41 -2 4 5 13 16 19 11 6 20 17 20 25 0 8 4 15 8 15 5
0 9 21 11 47 1 26 4 49 6 52 2 2 -1 13 -7 25 -7 11 -13 44 -14 72 0 28 -4 55
-7 60 -3 5 1 26 8 46 9 26 9 36 1 31 -6 -4 -5 1 3 10 7 9 15 38 17 65 3 52 11
99 21 122 10 24 12 200 2 200 -4 0 -6 7 -3 15 3 8 2 20 -2 27 -5 7 -7 23 -5
36 1 12 -1 22 -6 22 -4 0 -9 30 -10 66 -1 36 -5 73 -9 82 -4 10 -9 39 -11 67
-3 27 -8 52 -11 55 -4 3 -7 34 -8 70 -2 102 -7 184 -13 195 -3 6 -6 46 -7 90
-1 44 -3 81 -4 83 -1 1 -3 5 -4 10 -1 4 -5 13 -10 21 -6 10 -5 12 2 7 8 -5 12
1 12 16 0 13 8 35 17 48 10 14 16 25 14 25 -1 0 3 12 10 28 7 15 16 27 20 27
6 0 17 32 24 70 0 3 6 14 12 25 6 11 12 25 12 30 3 23 14 50 25 57 6 4 11 11
12 15 0 4 6 28 14 53 14 48 22 180 10 180 -3 0 -7 6 -7 14 0 26 -25 76 -36 69
-5 -3 -7 -1 -3 5 3 6 -1 17 -9 26 -9 8 -17 19 -18 23 -1 4 -6 7 -10 5 -5 -1
-6 1 -3 6 3 5 -12 23 -34 40 -27 22 -45 49 -60 89 -12 32 -28 68 -36 80 -8 13
-12 23 -8 23 3 0 -1 11 -10 25 -9 13 -16 31 -16 40 0 8 -5 15 -11 15 -5 0 -7
4 -4 10 3 5 -1 23 -10 41 -9 17 -14 37 -12 44 3 7 -1 24 -8 38 -7 14 -11 28
-7 31 3 3 0 6 -6 6 -7 0 -11 3 -11 8 1 4 0 9 -1 12 -1 3 -3 13 -5 22 -8 40
-38 107 -47 102 -4 -3 -8 -2 -7 3 1 4 0 11 -1 16 -1 4 -3 10 -5 15 -1 4 -8 21
-15 37 -7 17 -13 33 -12 38 1 4 -3 7 -9 7 -5 0 -8 4 -5 9 3 5 -3 20 -14 33
-11 14 -16 28 -13 32 3 3 1 6 -6 6 -10 0 -33 41 -35 63 -1 5 -8 14 -17 20 -26
20 -38 51 -28 70 6 9 7 17 4 17 -4 0 10 16 30 35 20 20 47 52 61 72 13 20 24
33 24 29 0 -8 125 117 126 127 1 4 2 11 3 16 0 4 13 20 28 35 28 28 34 38 79
126 15 30 32 58 37 61 5 3 9 9 8 12 -1 12 31 82 44 97 61 70 125 269 131 410
2 41 4 77 5 80 1 3 1 19 0 35 0 17 -1 52 -1 78 0 26 -4 46 -8 43 -4 -2 -8 10
-9 27 -3 59 -32 167 -46 167 -4 0 -6 4 -2 9 3 6 -2 14 -11 19 -9 5 -15 12 -15
15 3 23 -2 35 -24 61 -14 16 -25 32 -25 36 0 12 -131 145 -141 142 -5 -1 -9 5
-9 14 0 9 -5 12 -12 8 -7 -4 -10 -4 -6 1 4 4 1 20 -6 34 -15 27 -27 58 -32 78
-2 13 -105 143 -148 188 -15 17 -35 40 -43 53 -9 12 -22 22 -30 22 -8 0 -12 4
-8 9 3 5 0 13 -7 17 -11 7 19 25 47 28 33 4 167 65 173 79 2 4 7 5 12 2 5 -3
15 2 24 10 8 9 19 16 23 17 21 3 62 36 55 43 -4 5 -2 5 4 2 14 -8 110 41 106
54 -1 6 2 8 7 5 10 -6 72 22 83 38 4 6 8 7 8 3 0 -5 7 -1 16 8 9 9 29 19 45
22 16 3 29 10 29 16 0 6 3 7 6 4 4 -3 16 -1 28 5 11 7 25 11 29 10 4 -1 10 4
13 12 3 8 12 12 19 10 7 -3 16 0 20 5 3 6 11 9 16 6 5 -4 9 -1 9 4 0 6 9 11
20 11 11 0 23 7 26 15 4 8 10 13 14 10 5 -3 13 3 19 12 6 10 11 14 11 9 0 -8
69 40 81 57 3 5 10 9 15 9 12 1 68 48 57 48 -4 0 0 5 10 11 35 20 15 29 -66
29 -53 0 -88 -5 -96 -12 -9 -8 -12 -9 -7 -1 4 8 -13 11 -64 10 -42 0 -70 -5
-70 -11 0 -7 -3 -7 -8 0 -8 12 -80 13 -99 1 -6 -4 -14 -3 -18 3 -4 6 -11 7
-17 4 -11 -7 -134 -14 -310 -17 -53 -1 -100 -5 -104 -9 -4 -5 -14 -3 -21 4 -9
7 -17 8 -21 2 -4 -5 -71 -9 -149 -9 -79 0 -143 -3 -143 -7 0 -4 -7 -4 -17 -1
-9 4 -14 2 -11 -3 3 -5 -11 -10 -32 -11 -32 -2 -40 1 -46 20 -5 12 -7 25 -6
30 1 4 -2 7 -7 7 -11 0 -41 107 -41 146 0 17 -3 34 -7 37 -3 4 -7 27 -9 51 -1
24 -5 50 -9 57 -5 7 -9 25 -10 41 -2 16 -13 40 -25 53 -20 21 -191 110 -211
110 -5 0 -14 6 -21 13 -6 6 -20 12 -30 12 -10 0 -18 5 -18 10 0 6 -6 10 -13
10 -7 0 -40 13 -73 30 -33 16 -74 31 -90 34 -16 3 -44 10 -61 15 -18 5 -33 7
-33 4 0 -3 -6 -1 -12 5 -7 5 -29 12 -48 15 -19 3 -46 9 -60 12 -14 4 -35 7
-47 8 -13 1 -23 4 -23 7 0 8 -282 8 -306 0z"/>
</g>
</svg>
